<?xml version="1.0" encoding="UTF-8"?>
<svg width="182px" height="437px" viewBox="0 0 182 437" version="1.1" xmlns="http://www.w3.org/2000/svg" xmlns:xlink="http://www.w3.org/1999/xlink">
    <title>drinking-fountain</title>
    <g id="drinking-fountain" stroke="none" stroke-width="1" fill="none" fill-rule="evenodd">
        <g id="icon" transform="translate(13.000000, 7.000000)">
            <path d="M60.4457999,424 L99.5044824,424 C123.778707,420.409892 141.437781,406.829394 152.481704,383.258506 C157.493978,372.560879 158.339591,290.303684 155.000906,177.592851 C151.66222,64.8820186 128.038375,36.973768 103.609485,36.973768 C103.609485,28.4768227 103.609485,17.7803128 103.609485,4.88423831 C85.1272384,-1.62807944 67.044405,-1.62807944 49.360985,4.88423831 C49.360985,17.908118 49.360985,24.3696154 49.360985,36.973768 C30.7058223,36.973768 0,65.9224593 0,177.592851 C0,289.263243 0.50911189,373.92506 5.51380158,383.258506 C16.712844,404.144047 35.0235101,417.724545 60.4457999,424 Z" id="Path" fill="#293180"></path>
            <path d="M38.2579648,325.515152 L38.2579648,307.266785 L57.9886105,307.266785 L57.9886105,325.515152 L63.2465753,325.515152 L63.2465753,288.242424 L57.9886105,288.242424 L57.9886105,302.861143 L38.2579648,302.861143 L38.2579648,288.242424 L33,288.242424 L33,325.515152 L38.2579648,325.515152 Z M83.4109589,328 L83.4109589,325.763636 L73.3962818,325.763636 C74.2214612,325.03126 75.1091542,324.235673 76.0593607,323.376874 C77.0095673,322.518075 77.9306009,321.630941 78.8224614,320.71547 C79.4475973,320.079001 79.9789628,319.499203 80.4165579,318.976077 C80.8541531,318.452951 81.235486,317.921106 81.5605566,317.380542 C81.9106327,316.805104 82.1752736,316.19697 82.3544792,315.55614 C82.5336849,314.915311 82.6232877,314.224349 82.6232877,313.483254 C82.6232877,311.835407 82.0815032,310.529771 80.9979343,309.566348 C79.9143654,308.602924 78.4182069,308.121212 76.5094586,308.121212 C75.5842574,308.121212 74.6277995,308.247634 73.6400848,308.500478 C72.6523701,308.753323 71.8626151,309.032323 71.2708197,309.33748 L71.2708197,309.33748 L71.2708197,312.083892 L71.3958469,312.083892 C72.2376966,311.508453 73.1003841,311.081233 73.9839095,310.802233 C74.8674349,310.523232 75.6884468,310.383732 76.446945,310.383732 C77.5888599,310.383732 78.4786367,310.669272 79.1162753,311.240351 C79.7539139,311.81143 80.0727332,312.602658 80.0727332,313.614035 C80.0727332,314.721318 79.7768355,315.752313 79.1850402,316.707018 C78.5932449,317.661722 77.4971733,318.94992 75.8968254,320.571611 C75.1383272,321.347581 74.3193991,322.127911 73.4400413,322.9126 C72.5606835,323.697289 71.6834094,324.481978 70.8082192,325.266667 L70.8082192,325.266667 L70.8082192,328 L83.4109589,328 Z M107.343407,326.757576 C110.08205,326.757576 112.518762,326.321806 114.653543,325.450267 C116.788323,324.578727 118.638183,323.279963 120.203122,321.553973 C121.71703,319.896339 122.894987,317.824297 123.736992,315.337847 C124.578997,312.851396 125,310.035982 125,306.891605 C125,303.747227 124.587503,300.936086 123.762508,298.458179 C122.937513,295.980273 121.751051,293.88687 120.203122,292.177969 C118.689214,290.520336 116.847859,289.242932 114.679058,288.345759 C112.510257,287.448586 110.06504,287 107.343407,287 C104.723835,287 102.304133,287.444314 100.084302,288.332943 C97.8644697,289.221571 96.0061048,290.503247 94.5092067,292.177969 C92.9442678,293.938137 91.7535534,296.052902 90.9370636,298.522263 C90.1205737,300.991625 89.7123288,303.781405 89.7123288,306.891605 C89.7123288,310.053071 90.1248262,312.864213 90.9498212,315.32503 C91.7748162,317.785847 92.9527729,319.862161 94.4836914,321.553973 C96.0146099,323.245785 97.8729748,324.536005 100.058786,325.424633 C102.244598,326.313262 104.672804,326.757576 107.343407,326.757576 Z M107.369144,321.787879 C103.52732,321.787879 100.464244,320.509487 98.1799162,317.952703 C95.8955885,315.395919 94.7534247,311.708725 94.7534247,306.89112 C94.7534247,302.122841 95.8739566,298.443868 98.1150205,295.8542 C100.356084,293.264531 103.440792,291.969697 107.369144,291.969697 C111.262884,291.969697 114.334612,293.264531 116.584329,295.8542 C118.834046,298.443868 119.958904,302.122841 119.958904,306.89112 C119.958904,311.708725 118.821067,315.395919 116.545392,317.952703 C114.269717,320.509487 111.210967,321.787879 107.369144,321.787879 Z" id="H2O" fill="#FFFFFF" fill-rule="nonzero" transform="translate(79.000000, 307.500000) rotate(-90.000000) translate(-79.000000, -307.500000) "></path>
        </g>
        <line x1="62.5" y1="26.5" x2="116.5" y2="26.5" id="Line" stroke="#FFFFFF" stroke-linecap="square"></line>
        <line x1="62.5" y1="32.5" x2="116.5" y2="32.5" id="Line-Copy" stroke="#FFFFFF" stroke-width="1.5" stroke-linecap="square"></line>
        <path d="M38.5,59.5 C56,61.5 73.5,62.5 91,62.5 C108.5,62.5 126,61.5 143.5,59.5" id="Line-Copy-2" stroke="#FFFFFF" stroke-width="0.5" opacity="0.5" stroke-linecap="square"></path>
    </g>
</svg>