<?xml version="1.0" encoding="UTF-8"?>
<svg xmlns="http://www.w3.org/2000/svg" xmlns:xlink="http://www.w3.org/1999/xlink" version="1.1" x="0px" y="0px" viewBox="0 0 427 531.7" style="" xml:space="preserve">
<g>
<path fill="#FFFFFF" d="M158.8,168.1c1.8,5.1,2.8,10.9,2.8,17c0,0.5,0,1-0.1,1.5c0,6.8-4.1,12.8-9.9,15.4c-7.5,3.3-17.2,6-27.9,7.7   c-8,1.3-15.6,1.8-22.4,1.6l-11.8,27.9c-0.5,1-1.4,1.6-2.5,1.6c-0.7,0-1.3-0.3-1.8-0.7l-20-16.5c-0.6-0.5-0.9-1.2-0.9-2   c0-0.9,0.4-1.7,1.1-2.2l80-74.2c3.4-3.1,7.9-5,12.8-5c5.2,0,9.9,2,13.4,5.4l17.8,18.1c0.4,0.5,0.7,1.1,0.7,1.8   c0,1.5-1.2,2.7-2.7,2.7L158.8,168.1z"></path>
	<path fill="#FFFFFF" d="M293.1,319.3c1.2-1.3,1.9-3,1.9-4.9c0-4.1-3.3-7.4-7.4-7.4c-1.9,0-3.7,0.7-4.9,2c-5.3,5-11.3,7.9-19.3,8   c-7.5,0.1-14.4-2.8-19.3-7.8c-1.4-1.3-3.2-2.2-5.3-2.2c-2.3,0-4,0.9-5.4,2.5c-4.6,4.8-11,7.8-18.1,7.8c-7.2,0-13.5-2.7-18-7.6   c-1.4-1.6-3.4-2.7-5.7-2.7c-2.1,0-4.1,0.9-5.4,2.3c-5,5-11.7,7.9-19.3,7.9c-7.5,0-14.5-3.1-19.4-8.1c-1.4-1.3-3.2-2.2-5.2-2.2   c-4.1,0-7.4,3.3-7.4,7.4c0,1.8,0.8,3.8,1.9,5.1c6.8,7.8,16.9,12.7,28,12.7c8,0,15.6-2.3,21.7-6.5c1.2-1,2.9-1.6,4.6-1.6   c1.9,0,3.6,0.7,4.9,1.9c5.3,3.9,11.9,6.3,19,6.3c7.4,0,14.1-2.5,19.5-6.6c1.3-1,2.8-1.6,4.5-1.6c1.8,0,3.2,0.6,4.5,1.6   c6,4.2,13.4,6.7,21.3,6.7C276,332.2,286.2,327,293.1,319.3"></path>
	<path fill="#FFFFFF" d="M273.7,112c0-2.4-1.9-4.3-4.3-4.3h0l-108.9,0c-2.4,0-4.3,1.8-4.3,4.2v9.3c0,2.4,2,4.5,4.4,4.5l47.7,0   l-8.8,122.2c-15.9-4.4-29.1-15.3-36.2-29.9H120c-2.4,0-4.1,2-4.1,4.4l-0.1,11.3c0,2.4,2.1,4.3,4.5,4.3l11.4,0.1   c10.5,36.1,43.7,62.4,83.1,62.4c39.5,0,72.9-26.5,83.3-62.6l10.9,0c2.4,0,4.3-1.9,4.3-4.3l-0.1-11.2c0-2.4-1.8-4.3-4.2-4.3l-42.4,0   c-7.2,15.1-20.2,25.6-36.5,30.2l-8.4-122.5l47.6,0c2.4,0,4.4-1.7,4.4-4.1L273.7,112z"></path>
	<path fill="#FFFFFF" d="M241.4,99.6c1.6,0,2.9-1.3,2.9-2.9c0-0.9-0.4-1.7-1-2.2l-15.8-12L243.4,70c0.5-0.5,0.9-1.3,0.9-2.1   c0-1.6-1.4-2.9-3-2.9l-39.6-0.1c-2.4,0-4.2,2-4.2,4.4l-0.1,26.2c0,2.4,1.9,4.2,4.3,4.2L241.4,99.6z"></path>
	<path fill="#FFFFFF" d="M268.2,167.9c-1.8,5.1-2.8,10.9-2.8,17c0,0.5,0,1,0.1,1.5c0,6.8,4.1,12.8,9.9,15.4c7.5,3.3,17.2,6,27.9,7.7   c8,1.3,15.6,1.8,22.4,1.6l11.8,27.9c0.5,1,1.4,1.6,2.5,1.6c0.7,0,1.3-0.3,1.8-0.7l20-16.5c0.6-0.5,0.9-1.2,0.9-2   c0-0.9-0.4-1.7-1.1-2.2l-80-74.2c-3.4-3.1-7.9-5-12.8-5c-5.2,0-9.9,2-13.4,5.4l-17.8,18.1c-0.4,0.5-0.7,1.1-0.7,1.8   c0,1.5,1.2,2.7,2.7,2.7L268.2,167.9z"></path>
	<path fill="#FFFFFF" d="M342.6,404h-15.9l8.1-23.3L342.6,404z M362.7,425.9l-23.4-64.1h-9.8l-23.3,64.1h13.1l3.9-11.3h22.8l3.8,11.3   H362.7z M288.8,393.9c0,12.3-0.7,15.3-3.2,18c-1.8,2.1-4.6,3.4-8,3.4c-3.4,0-6.3-1.4-8.1-3.4c-2.4-2.7-3.1-5.7-3.1-18   c0-12.3,0.6-15.3,3.1-18c1.8-2.1,4.7-3.4,8.1-3.4c3.4,0,6.2,1.4,8,3.4C288.1,378.6,288.8,381.5,288.8,393.9 M301.3,393.9   c0-11.1,0.1-19.1-6.4-25.6c-4.5-4.5-10-7-17.3-7s-12.9,2.5-17.4,7c-6.5,6.5-6.3,14.5-6.3,25.6c0,11.1-0.2,19.1,6.3,25.6   c4.5,4.5,10.1,7,17.4,7s12.8-2.5,17.3-7C301.4,413,301.3,404.9,301.3,393.9 M229.9,380.4c0,4.4-3,7.4-8.3,7.4h-12.2V373h12.2   C226.9,373,229.9,375.9,229.9,380.4 M230.8,406.8c0,4.3-2.7,7.9-8.4,7.9h-13.1V399h13.1C228.1,399,230.8,402.5,230.8,406.8    M243.3,407.5c0-8.6-5-12.6-8.8-14.4c3.2-1.5,7.9-6.1,7.9-13.2c0-11-7.3-18-19.8-18h-25.8v64.1h26.8   C235.1,425.9,243.3,419.5,243.3,407.5 M185,407c0-5.7-1.5-10.4-5-13.6c-2.7-2.5-6.4-4.1-12.3-5l-7.6-1.1c-2.6-0.4-4.7-1.4-5.9-2.5   c-1.3-1.3-1.9-3-1.9-4.6c0-4.4,3.2-8.1,9.9-8.1c4.2,0,9.1,0.5,13.2,4.4l7.9-7.8c-5.5-5.3-11.9-7.5-20.7-7.5   c-13.9,0-22.3,8-22.3,19.5c0,5.4,1.5,9.5,4.6,12.6c2.9,2.8,6.9,4.5,12.4,5.3l7.7,1.1c3,0.5,4.4,1.1,5.7,2.3c1.4,1.3,2,3.2,2,5.4   c0,5.1-4,7.9-11.3,7.9c-5.9,0-11.4-1.4-15.5-5.4l-8.1,8.1c6.3,6.4,13.7,8.5,23.4,8.5C174.7,426.5,185,419.5,185,407 M128.6,361.8   h-12.5v64.1h12.5V361.8z M105.9,425.9v-11.2H76.8v-53H64.3v64.1H105.9z"></path>
</g>
</svg>
